# xmcd
#
# Track frame offsets:
#	150
#	18847
#	36502
#	52433
#	68801
#	84798
#	105457
#	122953
#	142764
#	160682
#	184672
#	199729
#	221274
#	238522
#	253814
#	273923
#	293012
#
# Disc length: 4280 seconds
#
# Revision: 0
# Processed by: cddbd v1.4PL0 Copyright (c) Steve Scherf et al.
# Submitted via: dBpowerAMP V4.0
#
DISCID=ed10b611
DTITLE=Kool and The Gang - Gangland
DYEAR=2001
DGENRE=R&B
TTITLE0=Bigg Thangs
TTITLE1=Mo Bigg Thangs
TTITLE2=Blow Up
TTITLE3=Where Da Boogie At
TTITLE4=Turn It Out
TTITLE5=Jungle In My House
TTITLE6=Money Makes The World Go Round
TTITLE7=Ballin' In Chilltown
TTITLE8=That's Right
TTITLE9=All My Time
TTITLE10=Early In The Morning
TTITLE11=Cherish
TTITLE12=Hit Me On The Hip
TTITLE13=Goody Goody
TTITLE14=Concrete Jungle
TTITLE15=Funk Done Gone Hip Hop
TTITLE16=Jazziacs At The Kool Jazz Cafe
EXTD=
EXTT0=
EXTT1=
EXTT2=
EXTT3=
EXTT4=
EXTT5=
EXTT6=
EXTT7=
EXTT8=
EXTT9=
EXTT10=
EXTT11=
EXTT12=
EXTT13=
EXTT14=
EXTT15=
EXTT16=
PLAYORDER=
